<?xml version="1.0" encoding="UTF-8"?>
<svg id="katman_2" data-name="katman 2" xmlns="http://www.w3.org/2000/svg" viewBox="0 0 185.33 51.02">
  <defs>
    <style>
      .cls-1 {
        fill: #fff;
      }
    </style>
  </defs>
  <g id="katman_1" data-name="katman 1">
    <g>
      <path class="cls-1" d="M12.04,40.19v-7.12h16.99c2.89,0,5.19-.6,6.84-1.78,1.4-1,1.99-2.06,1.99-3.53,0-1.14-.33-1.88-1.16-2.54-1.11-.9-2.98-1.55-5.55-1.93-.77-.12-1.81-.26-3.18-.42-4.04-.5-6.82-1.16-8.48-2.01-1.73-.9-3.08-2.14-4.05-3.69-.97-1.57-1.47-3.34-1.47-5.28,0-3.55,1.48-6.5,4.38-8.76,2.66-2.07,6.04-3.12,10.04-3.12h12.08v7.12h-12.02c-2.35,0-4.26.54-5.65,1.6-1.19.91-1.7,1.85-1.7,3.15,0,.63.14,1.14.45,1.61.31.48.76.86,1.38,1.15.41.2,1.79.71,6.01,1.23,1.24.15,2.2.27,2.89.37,4.11.6,7.28,1.77,9.42,3.46,2.49,1.98,3.75,4.69,3.75,8.04,0,3.88-1.65,7.02-4.9,9.34-2.92,2.07-6.77,3.12-11.46,3.12H12.04Z"/>
      <polygon class="cls-1" points="63.83 40.04 63.83 .33 70.96 .33 70.96 32.92 91.37 32.92 91.37 40.04 63.83 40.04"/>
      <rect class="cls-1" x="49.44" y=".33" width="7.07" height="39.87"/>
      <rect class="cls-1" y=".41" width="7.07" height="39.87"/>
      <path class="cls-1" d="M76.75,7.45V.33h20.99c2.38,0,4.52.15,6.36.45,1.93.31,3.66.8,5.15,1.44,3.52,1.58,6.33,4,8.37,7.18,2.03,3.18,3.06,6.77,3.06,10.7,0,3.06-.63,5.97-1.88,8.65-1.26,2.69-3.09,5.01-5.43,6.89-1.95,1.58-4.1,2.73-6.39,3.41-2.18.66-5.1.99-8.66.99h-1.86v-7.12h2.59c2.17,0,3.97-.18,5.35-.53,1.29-.33,2.5-.87,3.6-1.6,1.74-1.16,3.11-2.68,4.08-4.54.98-1.86,1.47-3.94,1.47-6.15,0-2.39-.58-4.58-1.73-6.51-1.15-1.92-2.77-3.43-4.82-4.49-1.07-.56-2.32-.97-3.72-1.23-1.53-.28-3.57-.42-6.05-.42h-20.47Z"/>
      <path class="cls-1" d="M175.2,19.28c-.61.31-1.36.55-2.23.69-1.04.17-2.57.25-4.55.25h-3.81l9.96,19.64.1.18h7.95l-6.79-13.47.96-.36c1.57-.54,2.94-1.29,4.09-2.22,2.95-2.39,4.45-5.81,4.45-10.19s-1.41-7.59-4.19-10c-2.65-2.31-6.3-3.47-10.85-3.47h-21.97l3.62,7.12h17.86c1.71,0,3.03.1,3.92.3.73.16,1.37.42,1.88.77.85.58,1.49,1.3,1.92,2.15.45.89.68,1.95.68,3.14,0,1.41-.26,2.58-.78,3.48-.46.82-1.21,1.48-2.23,1.98"/>
      <polygon class="cls-1" points="161.83 40.04 140.78 .15 132.21 .15 143.18 20.34 125.1 20.34 125.1 27.44 147.02 27.44 153.89 40.04 161.83 40.04"/>
      <polygon class="cls-1" points="20.45 50.95 23.56 44.05 29.25 44.05 26.15 50.95 20.45 50.95"/>
      <polygon class="cls-1" points="63.83 50.95 63.83 44.05 64.77 44.05 64.77 50.18 70.12 50.18 70.12 50.95 63.83 50.95"/>
      <rect class="cls-1" x="70.95" y="44.05" width=".93" height="6.89"/>
      <path class="cls-1" d="M82,47.53v.95c0,.91-.16,1.55-.49,1.92-.35.41-.97.62-1.85.62h-3.85c-.9,0-1.53-.21-1.91-.63-.36-.4-.54-1.05-.54-1.95v-1.89c0-.9.19-1.55.56-1.96.37-.41,1-.61,1.9-.61h3.52c1.71,0,2.56.63,2.56,1.89v.25h-.88c0-.43-.06-.73-.17-.91-.13-.2-.4-.33-.8-.4-.33-.05-.91-.08-1.73-.08h-2.42c-1.08,0-1.62.49-1.62,1.47v2.59c0,.98.54,1.47,1.62,1.47h3.65c1,0,1.5-.42,1.5-1.28v-.7h-3.53v-.76h4.47Z"/>
      <polygon class="cls-1" points="83.45 50.95 83.45 44.05 84.38 44.05 84.38 47.01 90.61 47.01 90.61 44.05 91.54 44.05 91.54 50.95 90.61 50.95 90.61 47.78 84.38 47.78 84.38 50.95 83.45 50.95"/>
      <polygon class="cls-1" points="95.91 50.95 95.91 44.81 92.42 44.81 92.42 44.05 100.33 44.05 100.33 44.81 96.84 44.81 96.84 50.95 95.91 50.95"/>
      <rect class="cls-1" x="101.23" y="44.05" width=".93" height="6.89"/>
      <polygon class="cls-1" points="103.76 50.95 103.76 44.05 105.16 44.05 111.47 50.11 111.47 44.05 112.4 44.05 112.4 50.95 111.01 50.95 104.7 44.89 104.7 50.95 103.76 50.95"/>
      <path class="cls-1" d="M122.43,47.53v.95c0,.91-.16,1.55-.48,1.92-.35.41-.97.62-1.85.62h-3.85c-.9,0-1.53-.21-1.91-.63-.36-.4-.54-1.05-.54-1.95v-1.89c0-.9.19-1.55.56-1.96.37-.41,1-.61,1.9-.61h3.52c1.71,0,2.56.63,2.56,1.89v.25h-.88c0-.43-.06-.73-.17-.91-.13-.2-.4-.33-.8-.4-.33-.05-.91-.08-1.73-.08h-2.42c-1.08,0-1.62.49-1.62,1.47v2.59c0,.98.54,1.47,1.62,1.47h3.65c1,0,1.5-.42,1.5-1.28v-.7h-3.53v-.76h4.47Z"/>
      <path class="cls-1" d="M128.1,49.28v-.5h.88v.48c0,.41.16.7.49.85.22.11.57.15,1.04.15h2.9c.61,0,1.03-.06,1.26-.19.33-.18.49-.54.49-1.09,0-.47-.14-.78-.42-.94-.2-.1-.56-.15-1.08-.15h-1.77c-1.52,0-2.51-.1-2.96-.31-.55-.25-.82-.82-.82-1.69,0-.81.29-1.36.88-1.64.4-.19,1.05-.29,1.98-.29h2.01c.91,0,1.57.09,1.97.26.61.27.92.79.92,1.56v.24h-.88c0-.4-.05-.67-.13-.82-.14-.23-.52-.38-1.15-.45-.19-.02-.62-.03-1.29-.03h-.99c-.96,0-1.59.07-1.89.19-.36.15-.54.5-.54,1.04,0,.5.17.82.51.96.2.09.6.13,1.2.13h2.76c.77,0,1.35.09,1.74.28.56.27.84.74.84,1.42v.45c0,.76-.29,1.28-.87,1.54-.39.18-1.03.28-1.9.28h-2.59c-.78,0-1.36-.1-1.75-.29-.54-.26-.81-.75-.81-1.46"/>
      <polygon class="cls-1" points="140.69 50.95 140.69 48.03 136.72 44.05 137.98 44.05 141.14 47.25 144.31 44.05 145.57 44.05 141.62 48.02 141.62 50.95 140.69 50.95"/>
      <path class="cls-1" d="M146.28,49.28v-.5h.88v.48c0,.41.16.7.49.85.22.11.57.15,1.04.15h2.9c.61,0,1.03-.06,1.26-.19.33-.18.5-.54.5-1.09,0-.47-.14-.78-.42-.94-.2-.1-.56-.15-1.08-.15h-1.77c-1.52,0-2.51-.1-2.96-.31-.54-.25-.82-.82-.82-1.69,0-.81.29-1.36.88-1.64.39-.19,1.05-.29,1.98-.29h2.01c.91,0,1.57.09,1.97.26.62.27.92.79.92,1.56v.24h-.88c0-.4-.05-.67-.13-.82-.14-.23-.52-.38-1.15-.45-.19-.02-.62-.03-1.29-.03h-.99c-.96,0-1.6.07-1.89.19-.36.15-.54.5-.54,1.04,0,.5.17.82.51.96.2.09.6.13,1.2.13h2.76c.77,0,1.35.09,1.74.28.56.27.84.74.84,1.42v.45c0,.76-.29,1.28-.87,1.54-.39.18-1.03.28-1.9.28h-2.59c-.78,0-1.36-.1-1.75-.29-.54-.26-.81-.75-.81-1.46"/>
      <polygon class="cls-1" points="158.39 50.95 158.39 44.81 154.91 44.81 154.91 44.05 162.81 44.05 162.81 44.81 159.33 44.81 159.33 50.95 158.39 50.95"/>
      <polygon class="cls-1" points="163.69 50.95 163.69 44.05 170.46 44.05 170.46 44.81 164.62 44.81 164.62 47.01 170.23 47.01 170.23 47.78 164.62 47.78 164.62 50.18 170.5 50.18 170.5 50.95 163.69 50.95"/>
      <polygon class="cls-1" points="171.66 50.95 171.66 44.05 173.09 44.05 177.14 49.83 181.19 44.05 182.64 44.05 182.64 50.95 181.7 50.95 181.7 44.89 177.48 50.95 176.81 50.95 172.59 44.89 172.59 50.95 171.66 50.95"/>
    </g>
  </g>
</svg>